HIERARCHY
ROOT root
{
	OFFSET 0.000000 0.000000 0.000000
	CHANNELS 6 Xposition Yposition Zposition Zrotation Yrotation Xrotation
	JOINT lhip
	{
		OFFSET 0.058581 -0.082280 -0.017664
		CHANNELS 3 Zrotation Yrotation Xrotation
		JOINT lknee
		{
			OFFSET 0.043451 -0.386469 0.008037
			CHANNELS 3 Zrotation Yrotation Xrotation
			JOINT lankle
			{
				OFFSET -0.014790 -0.426874 -0.037428
				CHANNELS 3 Zrotation Yrotation Xrotation
				JOINT ltoe
				{
					OFFSET 0.041054 -0.060286 0.122042
					CHANNELS 3 Zrotation Yrotation Xrotation
					End Site
					{
						OFFSET 0.000000 0.000000 0.000000
					}
				}
			}
		}
	}
	JOINT rhip
	{
		OFFSET -0.060310 -0.090513 -0.013543
		CHANNELS 3 Zrotation Yrotation Xrotation
		JOINT rknee
		{
			OFFSET -0.043257 -0.383688 -0.004843
			CHANNELS 3 Zrotation Yrotation Xrotation
			JOINT rankle
			{
				OFFSET 0.019056 -0.420046 -0.034562
				CHANNELS 3 Zrotation Yrotation Xrotation
				JOINT rtoe
				{
					OFFSET -0.034840 -0.062106 0.130323
					CHANNELS 3 Zrotation Yrotation Xrotation
					End Site
					{
						OFFSET 0.000000 0.000000 0.000000
					}
				}
			}
		}
	}
	JOINT lowerback
	{
		OFFSET 0.004439 0.124404 -0.038385
		CHANNELS 3 Zrotation Yrotation Xrotation
		JOINT upperback
		{
			OFFSET 0.004488 0.137956 0.026820
			CHANNELS 3 Zrotation Yrotation Xrotation
			JOINT chest
			{
				OFFSET -0.002265 0.056032 0.002855
				CHANNELS 3 Zrotation Yrotation Xrotation
				JOINT lowerneck
				{
					OFFSET -0.013390 0.211636 -0.033468
					CHANNELS 3 Zrotation Yrotation Xrotation
					JOINT upperneck
					{
						OFFSET 0.010113 0.088937 0.050410
						CHANNELS 3 Zrotation Yrotation Xrotation
						End Site
						{
							OFFSET 0.000000 0.000000 0.000000
						}
					}
				}
				JOINT lclavicle
				{
					OFFSET 0.071702 0.114000 -0.018898
					CHANNELS 3 Zrotation Yrotation Xrotation
					JOINT lshoulder
					{
						OFFSET 0.122921 0.045205 -0.019046
						CHANNELS 3 Zrotation Yrotation Xrotation
						JOINT lelbow
						{
							OFFSET 0.255332 -0.015649 -0.022946
							CHANNELS 3 Zrotation Yrotation Xrotation
							JOINT lwrist
							{
								OFFSET 0.265709 0.012698 -0.007375
								CHANNELS 3 Zrotation Yrotation Xrotation
								End Site
								{
									OFFSET 0.000000 0.000000 0.000000
								}
							}
						}
					}
				}
				JOINT rclavicle
				{
					OFFSET -0.082954 0.112472 -0.023707
					CHANNELS 3 Zrotation Yrotation Xrotation
					JOINT rshoulder
					{
						OFFSET -0.113228 0.046853 -0.008472
						CHANNELS 3 Zrotation Yrotation Xrotation
						JOINT relbow
						{
							OFFSET -0.260127 -0.014369 -0.031269
							CHANNELS 3 Zrotation Yrotation Xrotation
							JOINT rwrist
							{
								OFFSET -0.269108 0.006794 -0.006027
								CHANNELS 3 Zrotation Yrotation Xrotation
								End Site
								{
									OFFSET 0.000000 0.000000 0.000000
								}
							}
						}
					}
				}
			}
		}
	}
}
MOTION
Frames: 5
Frame Time: 0.033333
0.006068 0.794050 0.965250 56.711991 -2.066699 83.845826 6.530950 4.320772 -15.186076 -2.259634 17.269978 33.207725 7.208645 13.149601 -20.252423 0.000000 -0.000000 0.000000 -5.336424 -5.132041 -8.078945 -2.101550 -4.362058 39.942202 1.834148 -6.210067 -29.446142 0.000000 -0.000000 0.000000 -1.819984 2.618898 9.544443 0.146007 1.213755 4.985956 -1.743141 2.797452 4.217359 0.539986 4.508717 -13.289710 -1.621201 1.034080 -0.802677 -25.106728 10.321936 -6.156454 -62.146728 -7.123804 16.200910 -164.266162 -71.816383 -169.392098 14.087663 -7.184782 -23.647540 23.738435 -3.589925 -2.327937 52.888707 3.656803 19.247395 -163.848508 69.430419 -133.009008 1.820693 13.939059 13.322779 
0.006617 0.792666 0.961571 54.484304 -2.631440 82.690765 6.667341 4.628052 -14.046900 -2.232178 18.034133 34.776617 6.588682 14.122375 -21.506871 0.000000 -0.000000 0.000000 -5.755665 -4.357326 -7.983204 -1.667044 -2.809471 41.690086 1.792447 -6.572215 -30.631461 0.000000 -0.000000 0.000000 -1.152591 1.612987 9.681925 0.968447 0.276622 5.108106 -1.668064 1.690092 4.731732 -0.248429 6.078383 -12.410295 -2.876833 3.639571 -0.247170 -25.683268 10.952100 -6.011083 -62.197100 -7.684946 16.041738 -162.480509 -71.797381 -171.473657 15.224081 -7.759008 -24.039480 24.174275 -6.213726 -2.753792 51.737372 -0.077226 20.069363 -169.935785 67.968832 -138.890576 0.979208 14.539815 12.924533 
0.005166 0.791798 0.956659 52.300319 -3.263166 82.226646 6.811197 4.769523 -13.827842 -2.201817 18.942183 36.596255 6.645708 14.710284 -22.422062 0.000000 -0.000000 0.000000 -5.881330 -3.065290 -9.028110 -1.513816 -1.572770 44.015051 2.010642 -7.212175 -31.543200 0.000000 -0.000000 0.000000 -1.073225 0.651581 9.680084 1.811013 -0.504428 4.939391 -1.389995 0.570107 5.347648 -0.673622 7.685582 -12.221229 -4.156809 6.181689 0.635528 -26.152304 11.829236 -5.988400 -62.747369 -8.512680 15.874193 -162.248758 -71.870516 -171.510485 15.250208 -8.337682 -23.776503 24.620941 -8.795273 -3.381276 50.041528 -2.403696 21.130553 -174.507544 66.598382 -142.645018 1.642155 15.410196 11.913889 
0.007319 0.790318 0.952117 51.039347 -3.717536 81.443249 6.651353 5.234996 -13.393436 -2.427045 18.102065 38.388835 7.275208 14.492620 -23.577329 0.000000 -0.000000 0.000000 -6.251458 -2.803218 -8.993373 -1.431137 -0.759788 45.662889 2.080972 -7.212674 -32.427851 0.000000 -0.000000 0.000000 -0.279356 -0.224829 9.657896 2.411941 -1.592089 4.981275 -1.377342 -0.641911 5.688543 -1.094463 8.532700 -10.855994 -5.270416 8.966652 0.585622 -26.565315 11.870075 -5.319887 -63.253546 -9.190148 15.287629 -162.625844 -72.281139 -170.841886 15.538222 -8.631563 -22.877828 23.984269 -10.765047 -3.466563 49.556638 -5.000266 21.270855 -177.985849 65.560799 -145.671371 1.732323 15.881718 11.919886 
0.008317 0.789138 0.947920 49.859653 -4.195135 80.711549 6.636390 5.512093 -12.835399 -2.660860 18.252513 39.395556 7.125171 14.304798 -25.092241 0.000000 -0.000000 0.000000 -6.300896 -1.976714 -9.069460 -1.566174 0.073236 47.231038 2.179984 -7.895163 -33.278641 0.000000 -0.000000 0.000000 -0.188872 -1.283255 9.780532 3.004939 -2.551140 5.160020 -0.983458 -1.785629 6.194492 -1.195075 9.564521 -9.800195 -6.473873 11.360586 0.281228 -27.044566 12.343205 -5.442766 -63.847827 -9.777588 15.314455 -162.412747 -72.516626 -171.319910 16.728342 -8.350063 -23.439290 23.801137 -12.431023 -4.510179 48.329341 -6.067293 22.261635 178.950331 64.983305 -148.996409 1.002106 16.068012 10.839999 
